<?xml version="1.0" encoding="UTF-8" standalone="no"?>
<!DOCTYPE svg PUBLIC "-//W3C//DTD SVG 1.1//EN"
 "http://www.w3.org/Graphics/SVG/1.1/DTD/svg11.dtd">
<!-- Generated by graphviz version 2.40.1 (20161225.0304)
 -->
<!-- Title: deploy_processing_finite_state_machine Pages: 1 -->
<svg width="1474pt" height="3320pt"
 viewBox="0.00 0.00 707.53 1593.39" xmlns="http://www.w3.org/2000/svg" xmlns:xlink="http://www.w3.org/1999/xlink">
<g id="graph0" class="graph" transform="scale(2.0833 2.0833) rotate(0) translate(4 1589.3887)">
<title>deploy_processing_finite_state_machine</title>
<polygon fill="#ffffff" stroke="transparent" points="-4,4 -4,-1589.3887 703.5332,-1589.3887 703.5332,4 -4,4"/>
<!-- initialized -->
<g id="node1" class="node">
<title>initialized</title>
<ellipse fill="none" stroke="#000000" cx="429.9327" cy="-1567.3887" rx="45.9114" ry="18"/>
<text text-anchor="middle" x="429.9327" y="-1563.1887" font-family="Times,serif" font-size="14.00" fill="#000000">Initialized</text>
</g>
<!-- check_hashes -->
<g id="node3" class="node">
<title>check_hashes</title>
<polygon fill="none" stroke="#000000" points="156.9327,-1499.3887 72.7345,-1481.3887 156.9327,-1463.3887 241.1309,-1481.3887 156.9327,-1499.3887"/>
<text text-anchor="middle" x="156.9327" y="-1477.1887" font-family="Times,serif" font-size="14.00" fill="#000000">Hashes valid?</text>
</g>
<!-- initialized&#45;&gt;check_hashes -->
<g id="edge1" class="edge">
<title>initialized&#45;&gt;check_hashes</title>
<path fill="none" stroke="#000000" d="M393.962,-1556.0573C344.211,-1540.3848 254.4793,-1512.1177 200.8386,-1495.2199"/>
<polygon fill="#000000" stroke="#000000" points="201.85,-1491.869 191.2604,-1492.2026 199.7467,-1498.5456 201.85,-1491.869"/>
<text text-anchor="middle" x="353.438" y="-1520.1887" font-family="Times,serif" font-size="14.00" fill="#000000">deploy received</text>
</g>
<!-- check_block -->
<g id="node18" class="node">
<title>check_block</title>
<polygon fill="none" stroke="#000000" points="343.9327,-418.6841 266.2286,-400.6841 343.9327,-382.6841 421.6367,-400.6841 343.9327,-418.6841"/>
<text text-anchor="middle" x="343.9327" y="-396.4841" font-family="Times,serif" font-size="14.00" fill="#000000">Block valid?</text>
</g>
<!-- initialized&#45;&gt;check_block -->
<g id="edge2" class="edge">
<title>initialized&#45;&gt;check_block</title>
<path fill="none" stroke="#000000" d="M474.5016,-1562.5291C521.8443,-1554.6051 589.9327,-1534.054 589.9327,-1481.3887 589.9327,-1481.3887 589.9327,-1481.3887 589.9327,-547.3497 589.9327,-509.5508 584.5909,-494.0408 555.9327,-469.394 514.2072,-433.5091 453.3994,-416.2892 407.5967,-408.0712"/>
<polygon fill="#000000" stroke="#000000" points="407.9208,-404.5763 397.4767,-406.3569 406.7516,-411.478 407.9208,-404.5763"/>
<text text-anchor="middle" x="644.733" y="-1047.1887" font-family="Times,serif" font-size="14.00" fill="#000000">peer block received</text>
</g>
<!-- rejected -->
<g id="node2" class="node">
<title>rejected</title>
<ellipse fill="none" stroke="#000000" cx="125.9327" cy="-770.347" rx="41.0834" ry="41.0834"/>
<text text-anchor="middle" x="125.9327" y="-766.147" font-family="Times,serif" font-size="14.00" fill="#000000">Rejected</text>
</g>
<!-- check_hashes&#45;&gt;rejected -->
<g id="edge4" class="edge">
<title>check_hashes&#45;&gt;rejected</title>
<path fill="none" stroke="#000000" d="M110.764,-1473.1462C69.6424,-1462.8334 15.9327,-1440.6923 15.9327,-1395.3887 15.9327,-1395.3887 15.9327,-1395.3887 15.9327,-879.3887 15.9327,-841.2089 49.7698,-811.8378 79.9102,-793.2488"/>
<polygon fill="#000000" stroke="#000000" points="81.8621,-796.1608 88.6917,-788.061 78.3016,-790.134 81.8621,-796.1608"/>
<text text-anchor="middle" x="22.9327" y="-1133.1887" font-family="Times,serif" font-size="14.00" fill="#000000">no</text>
</g>
<!-- check_signatures -->
<g id="node4" class="node">
<title>check_signatures</title>
<polygon fill="none" stroke="#000000" points="156.9327,-1413.3887 56.3792,-1395.3887 156.9327,-1377.3887 257.4861,-1395.3887 156.9327,-1413.3887"/>
<text text-anchor="middle" x="156.9327" y="-1391.1887" font-family="Times,serif" font-size="14.00" fill="#000000">Signatures valid?</text>
</g>
<!-- check_hashes&#45;&gt;check_signatures -->
<g id="edge3" class="edge">
<title>check_hashes&#45;&gt;check_signatures</title>
<path fill="none" stroke="#000000" d="M156.9327,-1463.1503C156.9327,-1451.7484 156.9327,-1436.8229 156.9327,-1423.8827"/>
<polygon fill="#000000" stroke="#000000" points="160.4328,-1423.6008 156.9327,-1413.6008 153.4328,-1423.6008 160.4328,-1423.6008"/>
<text text-anchor="middle" x="166.2637" y="-1434.1887" font-family="Times,serif" font-size="14.00" fill="#000000">yes</text>
</g>
<!-- check_signatures&#45;&gt;rejected -->
<g id="edge6" class="edge">
<title>check_signatures&#45;&gt;rejected</title>
<path fill="none" stroke="#000000" d="M124.5164,-1383.0435C95.6438,-1369.6887 57.9327,-1345.3604 57.9327,-1309.3887 57.9327,-1309.3887 57.9327,-1309.3887 57.9327,-879.3887 57.9327,-852.3288 73.1968,-826.4332 89.2612,-806.6728"/>
<polygon fill="#000000" stroke="#000000" points="92.0895,-808.7501 95.9089,-798.8676 86.7603,-804.2112 92.0895,-808.7501"/>
<text text-anchor="middle" x="64.9327" y="-1090.1887" font-family="Times,serif" font-size="14.00" fill="#000000">no</text>
</g>
<!-- check_preexistence -->
<g id="node5" class="node">
<title>check_preexistence</title>
<polygon fill="none" stroke="#000000" points="192.9327,-1327.3887 86.0812,-1309.3887 192.9327,-1291.3887 299.7841,-1309.3887 192.9327,-1327.3887"/>
<text text-anchor="middle" x="192.9327" y="-1305.1887" font-family="Times,serif" font-size="14.00" fill="#000000">In finalized DAG?</text>
</g>
<!-- check_signatures&#45;&gt;check_preexistence -->
<g id="edge5" class="edge">
<title>check_signatures&#45;&gt;check_preexistence</title>
<path fill="none" stroke="#000000" d="M164.0451,-1378.3979C169.1237,-1366.2656 176.0546,-1349.7086 181.8544,-1335.8535"/>
<polygon fill="#000000" stroke="#000000" points="185.2021,-1336.9202 185.835,-1326.3442 178.745,-1334.2172 185.2021,-1336.9202"/>
<text text-anchor="middle" x="187.2637" y="-1348.1887" font-family="Times,serif" font-size="14.00" fill="#000000">yes</text>
</g>
<!-- check_preexistence&#45;&gt;rejected -->
<g id="edge8" class="edge">
<title>check_preexistence&#45;&gt;rejected</title>
<path fill="none" stroke="#000000" d="M163.7907,-1296.1541C137.8346,-1282.1397 103.9327,-1257.3373 103.9327,-1223.3887 103.9327,-1223.3887 103.9327,-1223.3887 103.9327,-879.3887 103.9327,-859.672 107.4316,-838.3391 111.6388,-819.8148"/>
<polygon fill="#000000" stroke="#000000" points="115.1021,-820.3812 114.0312,-809.8406 108.2952,-818.7484 115.1021,-820.3812"/>
<text text-anchor="middle" x="113.2637" y="-1047.1887" font-family="Times,serif" font-size="14.00" fill="#000000">yes</text>
</g>
<!-- check_session_and_payment_code -->
<g id="node6" class="node">
<title>check_session_and_payment_code</title>
<polygon fill="none" stroke="#000000" points="211.9327,-1241.3887 131.9787,-1223.3887 211.9327,-1205.3887 291.8866,-1223.3887 211.9327,-1241.3887"/>
<text text-anchor="middle" x="211.9327" y="-1219.1887" font-family="Times,serif" font-size="14.00" fill="#000000">Has WASM?</text>
</g>
<!-- check_preexistence&#45;&gt;check_session_and_payment_code -->
<g id="edge7" class="edge">
<title>check_preexistence&#45;&gt;check_session_and_payment_code</title>
<path fill="none" stroke="#000000" d="M196.7776,-1291.9853C199.4044,-1280.0955 202.9382,-1264.1004 205.9327,-1250.5466"/>
<polygon fill="#000000" stroke="#000000" points="209.3537,-1251.2858 208.0934,-1240.7662 202.5185,-1249.7757 209.3537,-1251.2858"/>
<text text-anchor="middle" x="210.9327" y="-1262.1887" font-family="Times,serif" font-size="14.00" fill="#000000">no</text>
</g>
<!-- check_session_and_payment_code&#45;&gt;rejected -->
<g id="edge10" class="edge">
<title>check_session_and_payment_code&#45;&gt;rejected</title>
<path fill="none" stroke="#000000" d="M199.6017,-1207.9193C189.8188,-1194.755 176.7014,-1174.9243 169.9327,-1155.3887 130.2762,-1040.9339 124.6359,-897.0331 124.7805,-821.7071"/>
<polygon fill="#000000" stroke="#000000" points="128.2813,-821.5627 124.8364,-811.5436 121.2814,-821.5241 128.2813,-821.5627"/>
<text text-anchor="middle" x="144.9327" y="-1004.1887" font-family="Times,serif" font-size="14.00" fill="#000000">no</text>
</g>
<!-- check_wasm -->
<g id="node10" class="node">
<title>check_wasm</title>
<polygon fill="none" stroke="#000000" points="264.9327,-1155.3887 179.4255,-1137.3887 264.9327,-1119.3887 350.4398,-1137.3887 264.9327,-1155.3887"/>
<text text-anchor="middle" x="264.9327" y="-1133.1887" font-family="Times,serif" font-size="14.00" fill="#000000">WASM valid?</text>
</g>
<!-- check_session_and_payment_code&#45;&gt;check_wasm -->
<g id="edge9" class="edge">
<title>check_session_and_payment_code&#45;&gt;check_wasm</title>
<path fill="none" stroke="#000000" d="M221.9016,-1207.2128C229.7485,-1194.48 240.8153,-1176.5226 249.7606,-1162.0075"/>
<polygon fill="#000000" stroke="#000000" points="252.7415,-1163.8416 255.0085,-1153.4921 246.7823,-1160.169 252.7415,-1163.8416"/>
<text text-anchor="middle" x="251.2637" y="-1176.1887" font-family="Times,serif" font-size="14.00" fill="#000000">yes</text>
</g>
<!-- check_nonce_step_one -->
<g id="node7" class="node">
<title>check_nonce_step_one</title>
<polygon fill="none" stroke="#000000" points="333.9327,-1069.3887 221.3078,-1051.3887 333.9327,-1033.3887 446.5576,-1051.3887 333.9327,-1069.3887"/>
<text text-anchor="middle" x="333.9327" y="-1047.1887" font-family="Times,serif" font-size="14.00" fill="#000000">Already processed?</text>
</g>
<!-- check_nonce_step_two -->
<g id="node8" class="node">
<title>check_nonce_step_two</title>
<polygon fill="none" stroke="#000000" points="333.9327,-983.3887 253.1961,-965.3887 333.9327,-947.3887 414.6693,-965.3887 333.9327,-983.3887"/>
<text text-anchor="middle" x="333.9327" y="-961.1887" font-family="Times,serif" font-size="14.00" fill="#000000">Nonce valid?</text>
</g>
<!-- check_nonce_step_one&#45;&gt;check_nonce_step_two -->
<g id="edge14" class="edge">
<title>check_nonce_step_one&#45;&gt;check_nonce_step_two</title>
<path fill="none" stroke="#000000" d="M333.9327,-1033.1503C333.9327,-1021.7484 333.9327,-1006.8229 333.9327,-993.8827"/>
<polygon fill="#000000" stroke="#000000" points="337.4328,-993.6008 333.9327,-983.6008 330.4328,-993.6008 337.4328,-993.6008"/>
<text text-anchor="middle" x="343.2637" y="-1004.1887" font-family="Times,serif" font-size="14.00" fill="#000000">yes</text>
</g>
<!-- pending -->
<g id="node12" class="node">
<title>pending</title>
<ellipse fill="none" stroke="#000000" cx="358.9327" cy="-770.347" rx="39.1887" ry="39.1887"/>
<text text-anchor="middle" x="358.9327" y="-766.147" font-family="Times,serif" font-size="14.00" fill="#000000">Pending</text>
</g>
<!-- check_nonce_step_one&#45;&gt;pending -->
<g id="edge13" class="edge">
<title>check_nonce_step_one&#45;&gt;pending</title>
<path fill="none" stroke="#000000" d="M363.7642,-1037.9918C384.8332,-1026.7387 411.4532,-1008.4587 423.9327,-983.3887 452.4466,-926.1071 416.9439,-853.8694 388.2678,-809.941"/>
<polygon fill="#000000" stroke="#000000" points="391.1176,-807.9064 382.6446,-801.5457 385.3016,-811.8019 391.1176,-807.9064"/>
<text text-anchor="middle" x="440.9327" y="-918.1887" font-family="Times,serif" font-size="14.00" fill="#000000">no</text>
</g>
<!-- check_nonce_step_three -->
<g id="node9" class="node">
<title>check_nonce_step_three</title>
<polygon fill="none" stroke="#000000" points="290.9327,-897.3887 217.0702,-879.3887 290.9327,-861.3887 364.7951,-879.3887 290.9327,-897.3887"/>
<text text-anchor="middle" x="290.9327" y="-875.1887" font-family="Times,serif" font-size="14.00" fill="#000000">Same hash?</text>
</g>
<!-- check_nonce_step_two&#45;&gt;check_nonce_step_three -->
<g id="edge16" class="edge">
<title>check_nonce_step_two&#45;&gt;check_nonce_step_three</title>
<path fill="none" stroke="#000000" d="M325.6418,-948.807C319.4155,-936.3544 310.7762,-919.0757 303.6745,-904.8724"/>
<polygon fill="#000000" stroke="#000000" points="306.6549,-903.0068 299.0522,-895.6278 300.3939,-906.1374 306.6549,-903.0068"/>
<text text-anchor="middle" x="321.9327" y="-918.1887" font-family="Times,serif" font-size="14.00" fill="#000000">no</text>
</g>
<!-- check_nonce_step_two&#45;&gt;pending -->
<g id="edge15" class="edge">
<title>check_nonce_step_two&#45;&gt;pending</title>
<path fill="none" stroke="#000000" d="M346.2448,-950.0007C355.9,-936.8848 368.5707,-917.0796 373.9327,-897.3887 380.9532,-871.6072 378.0617,-841.9988 373.0244,-817.855"/>
<polygon fill="#000000" stroke="#000000" points="376.3844,-816.8459 370.7567,-807.8693 369.5582,-818.3961 376.3844,-816.8459"/>
<text text-anchor="middle" x="387.2637" y="-875.1887" font-family="Times,serif" font-size="14.00" fill="#000000">yes</text>
</g>
<!-- check_nonce_step_three&#45;&gt;rejected -->
<g id="edge18" class="edge">
<title>check_nonce_step_three&#45;&gt;rejected</title>
<path fill="none" stroke="#000000" d="M271.0298,-866.2357C245.8517,-849.5965 201.8033,-820.4868 168.8254,-798.6931"/>
<polygon fill="#000000" stroke="#000000" points="170.5436,-795.6333 160.2711,-793.0399 166.6842,-801.4733 170.5436,-795.6333"/>
<text text-anchor="middle" x="239.9327" y="-832.1887" font-family="Times,serif" font-size="14.00" fill="#000000">no</text>
</g>
<!-- check_nonce_step_three&#45;&gt;pending -->
<g id="edge17" class="edge">
<title>check_nonce_step_three&#45;&gt;pending</title>
<path fill="none" stroke="#000000" d="M300.9663,-863.2992C309.348,-849.8588 321.6833,-830.0784 332.8227,-812.2158"/>
<polygon fill="#000000" stroke="#000000" points="335.8508,-813.9744 338.1725,-803.6371 329.9111,-810.2703 335.8508,-813.9744"/>
<text text-anchor="middle" x="329.2637" y="-832.1887" font-family="Times,serif" font-size="14.00" fill="#000000">yes</text>
</g>
<!-- check_wasm&#45;&gt;rejected -->
<g id="edge12" class="edge">
<title>check_wasm&#45;&gt;rejected</title>
<path fill="none" stroke="#000000" d="M249.8289,-1122.2771C237.7556,-1109.3257 221.3456,-1089.607 211.9327,-1069.3887 165.907,-970.5292 200.5947,-930.9686 160.9327,-829.3887 158.9011,-824.1856 156.4401,-818.9084 153.7749,-813.7587"/>
<polygon fill="#000000" stroke="#000000" points="156.6743,-811.7656 148.806,-804.6705 150.5323,-815.1238 156.6743,-811.7656"/>
<text text-anchor="middle" x="193.9327" y="-961.1887" font-family="Times,serif" font-size="14.00" fill="#000000">no</text>
</g>
<!-- check_wasm&#45;&gt;check_nonce_step_one -->
<g id="edge11" class="edge">
<title>check_wasm&#45;&gt;check_nonce_step_one</title>
<path fill="none" stroke="#000000" d="M277.5883,-1121.615C287.9306,-1108.7247 302.7219,-1090.2891 314.5546,-1075.5411"/>
<polygon fill="#000000" stroke="#000000" points="317.5955,-1077.3438 321.1236,-1067.3537 312.1356,-1072.9632 317.5955,-1077.3438"/>
<text text-anchor="middle" x="312.2637" y="-1090.1887" font-family="Times,serif" font-size="14.00" fill="#000000">yes</text>
</g>
<!-- check_ttl -->
<g id="node11" class="node">
<title>check_ttl</title>
<polygon fill="none" stroke="#000000" points="82.9327,-679.3053 .0673,-661.3053 82.9327,-643.3053 165.798,-661.3053 82.9327,-679.3053"/>
<text text-anchor="middle" x="82.9327" y="-657.1053" font-family="Times,serif" font-size="14.00" fill="#000000">TTL expired?</text>
</g>
<!-- check_ttl&#45;&gt;pending -->
<g id="edge21" class="edge">
<title>check_ttl&#45;&gt;pending</title>
<path fill="none" stroke="#000000" d="M112.6174,-673.0332C160.7559,-692.0516 256.1825,-729.7526 313.093,-752.2367"/>
<polygon fill="#000000" stroke="#000000" points="311.9801,-755.5603 322.5667,-755.9796 314.5523,-749.05 311.9801,-755.5603"/>
<text text-anchor="middle" x="211.9327" y="-700.1053" font-family="Times,serif" font-size="14.00" fill="#000000">no</text>
</g>
<!-- discarded -->
<g id="node15" class="node">
<title>discarded</title>
<ellipse fill="none" stroke="#000000" cx="68.9327" cy="-547.3497" rx="45.9114" ry="45.9114"/>
<text text-anchor="middle" x="68.9327" y="-543.1497" font-family="Times,serif" font-size="14.00" fill="#000000">Discarded</text>
</g>
<!-- check_ttl&#45;&gt;discarded -->
<g id="edge22" class="edge">
<title>check_ttl&#45;&gt;discarded</title>
<path fill="none" stroke="#000000" d="M80.7452,-643.4998C79.3955,-632.5139 77.5832,-617.7623 75.784,-603.1174"/>
<polygon fill="#000000" stroke="#000000" points="79.2397,-602.5418 74.5463,-593.0432 72.2919,-603.3954 79.2397,-602.5418"/>
<text text-anchor="middle" x="88.2637" y="-614.1053" font-family="Times,serif" font-size="14.00" fill="#000000">yes</text>
</g>
<!-- pending&#45;&gt;check_ttl -->
<g id="edge20" class="edge">
<title>pending&#45;&gt;check_ttl</title>
<path fill="none" stroke="#000000" d="M320.7969,-761.4635C283.8257,-752.9295 226.1257,-739.8174 175.9327,-729.3053 134.9573,-720.7238 110.2724,-743.4683 83.4737,-711.3053 78.2379,-705.0216 76.7828,-696.5904 77.0347,-688.4437"/>
<polygon fill="#000000" stroke="#000000" points="80.519,-688.7772 78.1107,-678.4598 73.5593,-688.0272 80.519,-688.7772"/>
<text text-anchor="middle" x="127.6622" y="-700.1053" font-family="Times,serif" font-size="14.00" fill="#000000">periodic checks</text>
</g>
<!-- check_computation_result -->
<g id="node17" class="node">
<title>check_computation_result</title>
<polygon fill="none" stroke="#000000" points="288.1783,-679.3053 229.687,-679.3053 229.687,-643.3053 288.1783,-643.3053 288.1783,-679.3053"/>
<text text-anchor="middle" x="258.9327" y="-657.1053" font-family="Times,serif" font-size="14.00" fill="#000000">execute</text>
</g>
<!-- pending&#45;&gt;check_computation_result -->
<g id="edge19" class="edge">
<title>pending&#45;&gt;check_computation_result</title>
<path fill="none" stroke="#000000" d="M320.3076,-763.9551C290.3165,-756.7435 250.6621,-741.7702 231.1807,-711.3053 226.4907,-703.9711 228.2696,-695.7949 232.6362,-688.2141"/>
<polygon fill="#000000" stroke="#000000" points="235.7678,-689.8502 238.7182,-679.6744 230.0661,-685.7893 235.7678,-689.8502"/>
<text text-anchor="middle" x="284.8086" y="-700.1053" font-family="Times,serif" font-size="14.00" fill="#000000">propose new block</text>
</g>
<!-- processed -->
<g id="node13" class="node">
<title>processed</title>
<ellipse fill="none" stroke="#000000" cx="422.9327" cy="-181.5021" rx="45.4441" ry="45.4441"/>
<text text-anchor="middle" x="422.9327" y="-177.3021" font-family="Times,serif" font-size="14.00" fill="#000000">Processed</text>
</g>
<!-- processed&#45;&gt;pending -->
<g id="edge31" class="edge">
<title>processed&#45;&gt;pending</title>
<path fill="none" stroke="#000000" d="M439.571,-223.8572C445.1272,-241.5375 449.9327,-262.4673 449.9327,-281.9742 449.9327,-661.3053 449.9327,-661.3053 449.9327,-661.3053 449.9327,-694.8669 424.2072,-723.5654 400.1124,-743.0843"/>
<polygon fill="#000000" stroke="#000000" points="397.7981,-740.45 392.0432,-749.3456 402.0894,-745.9804 397.7981,-740.45"/>
<text text-anchor="middle" x="493.2793" y="-472.194" font-family="Times,serif" font-size="14.00" fill="#000000">block orphaned</text>
</g>
<!-- finalized -->
<g id="node14" class="node">
<title>finalized</title>
<ellipse fill="none" stroke="#000000" cx="422.9327" cy="-43.015" rx="43.0301" ry="43.0301"/>
<text text-anchor="middle" x="422.9327" y="-38.815" font-family="Times,serif" font-size="14.00" fill="#000000">Finalized</text>
</g>
<!-- processed&#45;&gt;finalized -->
<g id="edge32" class="edge">
<title>processed&#45;&gt;finalized</title>
<path fill="none" stroke="#000000" d="M422.9327,-135.7725C422.9327,-123.2148 422.9327,-109.4863 422.9327,-96.533"/>
<polygon fill="#000000" stroke="#000000" points="426.4328,-96.348 422.9327,-86.348 419.4328,-96.3481 426.4328,-96.348"/>
<text text-anchor="middle" x="464.3379" y="-106.8301" font-family="Times,serif" font-size="14.00" fill="#000000">block finalized</text>
</g>
<!-- deleted -->
<g id="node16" class="node">
<title>deleted</title>
<ellipse fill="none" stroke="#000000" cx="120.9327" cy="-400.6841" rx="50.9207" ry="50.9207"/>
<text text-anchor="middle" x="120.9327" y="-396.4841" font-family="Times,serif" font-size="14.00" fill="#000000">Unbuffered</text>
</g>
<!-- discarded&#45;&gt;deleted -->
<g id="edge23" class="edge">
<title>discarded&#45;&gt;deleted</title>
<path fill="none" stroke="#000000" d="M63.2957,-501.6C63.3539,-490.815 64.587,-479.5163 68.0323,-469.394 70.8215,-461.1992 75.0265,-453.2193 79.8706,-445.7712"/>
<polygon fill="#000000" stroke="#000000" points="82.9389,-447.491 85.8042,-437.291 77.2035,-443.4779 82.9389,-447.491"/>
<text text-anchor="middle" x="115.3829" y="-472.194" font-family="Times,serif" font-size="14.00" fill="#000000">periodic cleanup</text>
</g>
<!-- check_computation_result&#45;&gt;pending -->
<g id="edge25" class="edge">
<title>check_computation_result&#45;&gt;pending</title>
<path fill="none" stroke="#000000" d="M288.5405,-668.4985C304.9098,-673.8962 324.4098,-682.8962 336.9327,-697.3053 342.9935,-704.2791 347.3848,-712.8766 350.5665,-721.6948"/>
<polygon fill="#000000" stroke="#000000" points="347.24,-722.7846 353.5658,-731.2837 353.9208,-720.6948 347.24,-722.7846"/>
<text text-anchor="middle" x="383.8379" y="-700.1053" font-family="Times,serif" font-size="14.00" fill="#000000">invalid nonce</text>
</g>
<!-- check_computation_result&#45;&gt;deleted -->
<g id="edge24" class="edge">
<title>check_computation_result&#45;&gt;deleted</title>
<path fill="none" stroke="#000000" d="M231.327,-643.1127C215.1055,-630.948 195.6303,-613.5 184.3565,-593.3053 157.0366,-544.3676 180.5199,-521.907 160.9327,-469.394 158.78,-463.6228 156.1624,-457.7758 153.3074,-452.0548"/>
<polygon fill="#000000" stroke="#000000" points="156.4048,-450.425 148.6581,-443.1974 150.2068,-453.6784 156.4048,-450.425"/>
<text text-anchor="middle" x="240.7207" y="-543.1497" font-family="Times,serif" font-size="14.00" fill="#000000">failed preconditions</text>
</g>
<!-- create_block -->
<g id="node19" class="node">
<title>create_block</title>
<polygon fill="none" stroke="#000000" points="388.9434,-565.3497 304.9219,-565.3497 304.9219,-529.3497 388.9434,-529.3497 388.9434,-565.3497"/>
<text text-anchor="middle" x="346.9327" y="-543.1497" font-family="Times,serif" font-size="14.00" fill="#000000">create block</text>
</g>
<!-- check_computation_result&#45;&gt;create_block -->
<g id="edge26" class="edge">
<title>check_computation_result&#45;&gt;create_block</title>
<path fill="none" stroke="#000000" d="M272.8765,-643.2487C287.3378,-624.5221 310.0962,-595.051 326.5691,-573.7195"/>
<polygon fill="#000000" stroke="#000000" points="329.4208,-575.7531 332.7626,-565.6992 323.8804,-571.4747 329.4208,-575.7531"/>
<text text-anchor="middle" x="315.9258" y="-614.1053" font-family="Times,serif" font-size="14.00" fill="#000000">success</text>
</g>
<!-- check_block&#45;&gt;pending -->
<g id="edge29" class="edge">
<title>check_block&#45;&gt;pending</title>
<path fill="none" stroke="#000000" d="M384.4888,-409.2991C435.8583,-421.1288 519.8893,-443.8618 537.9327,-469.394 602.8211,-561.2139 535.1757,-624.3236 463.9327,-711.3053 448.5913,-730.0359 425.6522,-743.9 405.1245,-753.4687"/>
<polygon fill="#000000" stroke="#000000" points="403.6179,-750.3081 395.8985,-757.5649 406.4584,-756.7058 403.6179,-750.3081"/>
<text text-anchor="middle" x="547.9327" y="-614.1053" font-family="Times,serif" font-size="14.00" fill="#000000">no</text>
</g>
<!-- store_block -->
<g id="node20" class="node">
<title>store_block</title>
<polygon fill="none" stroke="#000000" points="411.7503,-299.9742 334.1151,-299.9742 334.1151,-263.9742 411.7503,-263.9742 411.7503,-299.9742"/>
<text text-anchor="middle" x="372.9327" y="-277.7742" font-family="Times,serif" font-size="14.00" fill="#000000">store block</text>
</g>
<!-- check_block&#45;&gt;store_block -->
<g id="edge28" class="edge">
<title>check_block&#45;&gt;store_block</title>
<path fill="none" stroke="#000000" d="M348.1495,-383.4227C352.863,-364.1283 360.5633,-332.6076 366.1309,-309.8168"/>
<polygon fill="#000000" stroke="#000000" points="369.5473,-310.5799 368.5206,-300.0349 362.7473,-308.9186 369.5473,-310.5799"/>
<text text-anchor="middle" x="372.2637" y="-320.7742" font-family="Times,serif" font-size="14.00" fill="#000000">yes</text>
</g>
<!-- create_block&#45;&gt;check_block -->
<g id="edge27" class="edge">
<title>create_block&#45;&gt;check_block</title>
<path fill="none" stroke="#000000" d="M346.5588,-529.0709C346.044,-503.9031 345.1121,-458.3473 344.5082,-428.8188"/>
<polygon fill="#000000" stroke="#000000" points="348.0057,-428.6588 344.3018,-418.7325 341.0072,-428.802 348.0057,-428.6588"/>
</g>
<!-- store_block&#45;&gt;processed -->
<g id="edge30" class="edge">
<title>store_block&#45;&gt;processed</title>
<path fill="none" stroke="#000000" d="M382.1034,-263.5461C386.6416,-254.427 392.3618,-242.9324 398.0724,-231.4574"/>
<polygon fill="#000000" stroke="#000000" points="401.3054,-232.8167 402.6273,-222.3046 395.0385,-229.6979 401.3054,-232.8167"/>
</g>
</g>
</svg>
