<?xml version="1.0" encoding="UTF-8" standalone="no"?>
<!DOCTYPE svg PUBLIC "-//W3C//DTD SVG 1.1//EN"
 "http://www.w3.org/Graphics/SVG/1.1/DTD/svg11.dtd">
<!-- Generated by graphviz version 2.40.1 (20161225.0304)
 -->
<!-- Title: deploy_processing_finite_state_machine Pages: 1 -->
<svg width="1490pt" height="3320pt"
 viewBox="0.00 0.00 715.14 1593.39" xmlns="http://www.w3.org/2000/svg" xmlns:xlink="http://www.w3.org/1999/xlink">
<g id="graph0" class="graph" transform="scale(2.0833 2.0833) rotate(0) translate(4 1589.3887)">
<title>deploy_processing_finite_state_machine</title>
<polygon fill="#ffffff" stroke="transparent" points="-4,4 -4,-1589.3887 711.1377,-1589.3887 711.1377,4 -4,4"/>
<!-- initialized -->
<g id="node1" class="node">
<title>initialized</title>
<ellipse fill="none" stroke="#000000" cx="84.099" cy="-1567.3887" rx="45.9114" ry="18"/>
<text text-anchor="middle" x="84.099" y="-1563.1887" font-family="Times,serif" font-size="14.00" fill="#000000">Initialized</text>
</g>
<!-- check_hashes -->
<g id="node3" class="node">
<title>check_hashes</title>
<polygon fill="none" stroke="#000000" points="84.099,-1499.3887 -.0992,-1481.3887 84.099,-1463.3887 168.2973,-1481.3887 84.099,-1499.3887"/>
<text text-anchor="middle" x="84.099" y="-1477.1887" font-family="Times,serif" font-size="14.00" fill="#000000">Hashes valid?</text>
</g>
<!-- initialized&#45;&gt;check_hashes -->
<g id="edge1" class="edge">
<title>initialized&#45;&gt;check_hashes</title>
<path fill="none" stroke="#000000" d="M84.099,-1549.1503C84.099,-1537.7484 84.099,-1522.8229 84.099,-1509.8827"/>
<polygon fill="#000000" stroke="#000000" points="87.5991,-1509.6008 84.099,-1499.6008 80.5991,-1509.6008 87.5991,-1509.6008"/>
<text text-anchor="middle" x="128.6044" y="-1520.1887" font-family="Times,serif" font-size="14.00" fill="#000000">deploy received</text>
</g>
<!-- rejected -->
<g id="node2" class="node">
<title>rejected</title>
<ellipse fill="none" stroke="#000000" cx="180.099" cy="-770.347" rx="41.0834" ry="41.0834"/>
<text text-anchor="middle" x="180.099" y="-766.147" font-family="Times,serif" font-size="14.00" fill="#000000">Rejected</text>
</g>
<!-- check_hashes&#45;&gt;rejected -->
<g id="edge3" class="edge">
<title>check_hashes&#45;&gt;rejected</title>
<path fill="none" stroke="#000000" d="M79.0365,-1464.4288C74.349,-1447.2066 68.099,-1419.6875 68.099,-1395.3887 68.099,-1395.3887 68.099,-1395.3887 68.099,-879.3887 68.099,-840.6102 102.9945,-811.1488 133.8295,-792.6854"/>
<polygon fill="#000000" stroke="#000000" points="135.8694,-795.5503 142.8047,-787.5408 132.3883,-789.4773 135.8694,-795.5503"/>
<text text-anchor="middle" x="75.099" y="-1133.1887" font-family="Times,serif" font-size="14.00" fill="#000000">no</text>
</g>
<!-- check_signatures -->
<g id="node4" class="node">
<title>check_signatures</title>
<polygon fill="none" stroke="#000000" points="197.099,-1413.3887 96.5456,-1395.3887 197.099,-1377.3887 297.6525,-1395.3887 197.099,-1413.3887"/>
<text text-anchor="middle" x="197.099" y="-1391.1887" font-family="Times,serif" font-size="14.00" fill="#000000">Signatures valid?</text>
</g>
<!-- check_hashes&#45;&gt;check_signatures -->
<g id="edge2" class="edge">
<title>check_hashes&#45;&gt;check_signatures</title>
<path fill="none" stroke="#000000" d="M102.7587,-1467.1876C120.9401,-1453.3504 148.7966,-1432.1498 169.5323,-1416.3687"/>
<polygon fill="#000000" stroke="#000000" points="171.8157,-1419.0293 177.6536,-1410.1879 167.5763,-1413.459 171.8157,-1419.0293"/>
<text text-anchor="middle" x="157.4301" y="-1434.1887" font-family="Times,serif" font-size="14.00" fill="#000000">yes</text>
</g>
<!-- check_signatures&#45;&gt;rejected -->
<g id="edge5" class="edge">
<title>check_signatures&#45;&gt;rejected</title>
<path fill="none" stroke="#000000" d="M169.0928,-1382.2488C143.6599,-1368.1541 110.099,-1343.1573 110.099,-1309.3887 110.099,-1309.3887 110.099,-1309.3887 110.099,-879.3887 110.099,-851.7837 126.1827,-825.589 142.9309,-805.7951"/>
<polygon fill="#000000" stroke="#000000" points="145.5914,-808.0701 149.5997,-798.2627 140.3503,-803.4299 145.5914,-808.0701"/>
<text text-anchor="middle" x="117.099" y="-1090.1887" font-family="Times,serif" font-size="14.00" fill="#000000">no</text>
</g>
<!-- check_preexistence -->
<g id="node5" class="node">
<title>check_preexistence</title>
<polygon fill="none" stroke="#000000" points="245.099,-1327.3887 138.2476,-1309.3887 245.099,-1291.3887 351.9505,-1309.3887 245.099,-1327.3887"/>
<text text-anchor="middle" x="245.099" y="-1305.1887" font-family="Times,serif" font-size="14.00" fill="#000000">In finalized DAG?</text>
</g>
<!-- check_signatures&#45;&gt;check_preexistence -->
<g id="edge4" class="edge">
<title>check_signatures&#45;&gt;check_preexistence</title>
<path fill="none" stroke="#000000" d="M206.3539,-1378.807C213.3263,-1366.3148 223.0096,-1348.9656 230.9513,-1334.7368"/>
<polygon fill="#000000" stroke="#000000" points="234.0551,-1336.3573 235.8726,-1325.9195 227.9427,-1332.9457 234.0551,-1336.3573"/>
<text text-anchor="middle" x="233.4301" y="-1348.1887" font-family="Times,serif" font-size="14.00" fill="#000000">yes</text>
</g>
<!-- check_preexistence&#45;&gt;rejected -->
<g id="edge7" class="edge">
<title>check_preexistence&#45;&gt;rejected</title>
<path fill="none" stroke="#000000" d="M215.9571,-1296.1541C190.001,-1282.1397 156.099,-1257.3373 156.099,-1223.3887 156.099,-1223.3887 156.099,-1223.3887 156.099,-879.3887 156.099,-859.4251 159.9834,-837.8761 164.6268,-819.2484"/>
<polygon fill="#000000" stroke="#000000" points="168.0282,-820.0754 167.1858,-809.5141 161.2583,-818.2956 168.0282,-820.0754"/>
<text text-anchor="middle" x="165.4301" y="-1047.1887" font-family="Times,serif" font-size="14.00" fill="#000000">yes</text>
</g>
<!-- check_session_and_payment_code -->
<g id="node6" class="node">
<title>check_session_and_payment_code</title>
<polygon fill="none" stroke="#000000" points="264.099,-1241.3887 184.1451,-1223.3887 264.099,-1205.3887 344.053,-1223.3887 264.099,-1241.3887"/>
<text text-anchor="middle" x="264.099" y="-1219.1887" font-family="Times,serif" font-size="14.00" fill="#000000">Has WASM?</text>
</g>
<!-- check_preexistence&#45;&gt;check_session_and_payment_code -->
<g id="edge6" class="edge">
<title>check_preexistence&#45;&gt;check_session_and_payment_code</title>
<path fill="none" stroke="#000000" d="M248.944,-1291.9853C251.5708,-1280.0955 255.1046,-1264.1004 258.099,-1250.5466"/>
<polygon fill="#000000" stroke="#000000" points="261.5201,-1251.2858 260.2598,-1240.7662 254.6849,-1249.7757 261.5201,-1251.2858"/>
<text text-anchor="middle" x="263.099" y="-1262.1887" font-family="Times,serif" font-size="14.00" fill="#000000">no</text>
</g>
<!-- check_session_and_payment_code&#45;&gt;rejected -->
<g id="edge9" class="edge">
<title>check_session_and_payment_code&#45;&gt;rejected</title>
<path fill="none" stroke="#000000" d="M245.797,-1209.399C227.8291,-1193.9327 203.099,-1167.226 203.099,-1137.3887 203.099,-1137.3887 203.099,-1137.3887 203.099,-879.3887 203.099,-859.4628 199.3765,-837.9211 194.9266,-819.2887"/>
<polygon fill="#000000" stroke="#000000" points="198.3105,-818.3934 192.4743,-809.5509 191.5224,-820.1029 198.3105,-818.3934"/>
<text text-anchor="middle" x="210.099" y="-1004.1887" font-family="Times,serif" font-size="14.00" fill="#000000">no</text>
</g>
<!-- check_wasm -->
<g id="node10" class="node">
<title>check_wasm</title>
<polygon fill="none" stroke="#000000" points="317.099,-1155.3887 231.5919,-1137.3887 317.099,-1119.3887 402.6062,-1137.3887 317.099,-1155.3887"/>
<text text-anchor="middle" x="317.099" y="-1133.1887" font-family="Times,serif" font-size="14.00" fill="#000000">WASM valid?</text>
</g>
<!-- check_session_and_payment_code&#45;&gt;check_wasm -->
<g id="edge8" class="edge">
<title>check_session_and_payment_code&#45;&gt;check_wasm</title>
<path fill="none" stroke="#000000" d="M274.0679,-1207.2128C281.9149,-1194.48 292.9816,-1176.5226 301.927,-1162.0075"/>
<polygon fill="#000000" stroke="#000000" points="304.9079,-1163.8416 307.1749,-1153.4921 298.9487,-1160.169 304.9079,-1163.8416"/>
<text text-anchor="middle" x="302.4301" y="-1176.1887" font-family="Times,serif" font-size="14.00" fill="#000000">yes</text>
</g>
<!-- check_nonce_step_one -->
<g id="node7" class="node">
<title>check_nonce_step_one</title>
<polygon fill="none" stroke="#000000" points="395.099,-1069.3887 282.4741,-1051.3887 395.099,-1033.3887 507.724,-1051.3887 395.099,-1069.3887"/>
<text text-anchor="middle" x="395.099" y="-1047.1887" font-family="Times,serif" font-size="14.00" fill="#000000">Already processed?</text>
</g>
<!-- check_nonce_step_two -->
<g id="node8" class="node">
<title>check_nonce_step_two</title>
<polygon fill="none" stroke="#000000" points="395.099,-983.3887 314.3624,-965.3887 395.099,-947.3887 475.8357,-965.3887 395.099,-983.3887"/>
<text text-anchor="middle" x="395.099" y="-961.1887" font-family="Times,serif" font-size="14.00" fill="#000000">Nonce valid?</text>
</g>
<!-- check_nonce_step_one&#45;&gt;check_nonce_step_two -->
<g id="edge13" class="edge">
<title>check_nonce_step_one&#45;&gt;check_nonce_step_two</title>
<path fill="none" stroke="#000000" d="M395.099,-1033.1503C395.099,-1021.7484 395.099,-1006.8229 395.099,-993.8827"/>
<polygon fill="#000000" stroke="#000000" points="398.5991,-993.6008 395.099,-983.6008 391.5991,-993.6008 398.5991,-993.6008"/>
<text text-anchor="middle" x="404.4301" y="-1004.1887" font-family="Times,serif" font-size="14.00" fill="#000000">yes</text>
</g>
<!-- pending -->
<g id="node12" class="node">
<title>pending</title>
<ellipse fill="none" stroke="#000000" cx="461.099" cy="-770.347" rx="39.1887" ry="39.1887"/>
<text text-anchor="middle" x="461.099" y="-766.147" font-family="Times,serif" font-size="14.00" fill="#000000">Pending</text>
</g>
<!-- check_nonce_step_one&#45;&gt;pending -->
<g id="edge12" class="edge">
<title>check_nonce_step_one&#45;&gt;pending</title>
<path fill="none" stroke="#000000" d="M424.9306,-1037.9918C445.9996,-1026.7387 472.6196,-1008.4587 485.099,-983.3887 511.5229,-930.3059 495.7649,-860.7869 480.0921,-815.8456"/>
<polygon fill="#000000" stroke="#000000" points="483.3553,-814.5773 476.6602,-806.366 476.7734,-816.9603 483.3553,-814.5773"/>
<text text-anchor="middle" x="506.099" y="-918.1887" font-family="Times,serif" font-size="14.00" fill="#000000">no</text>
</g>
<!-- check_nonce_step_three -->
<g id="node9" class="node">
<title>check_nonce_step_three</title>
<polygon fill="none" stroke="#000000" points="351.099,-897.3887 277.2366,-879.3887 351.099,-861.3887 424.9615,-879.3887 351.099,-897.3887"/>
<text text-anchor="middle" x="351.099" y="-875.1887" font-family="Times,serif" font-size="14.00" fill="#000000">Same hash?</text>
</g>
<!-- check_nonce_step_two&#45;&gt;check_nonce_step_three -->
<g id="edge15" class="edge">
<title>check_nonce_step_two&#45;&gt;check_nonce_step_three</title>
<path fill="none" stroke="#000000" d="M386.823,-949.2128C380.37,-936.6001 371.2941,-918.8609 363.9054,-904.4192"/>
<polygon fill="#000000" stroke="#000000" points="367.0087,-902.8004 359.338,-895.4921 360.7769,-905.9888 367.0087,-902.8004"/>
<text text-anchor="middle" x="382.099" y="-918.1887" font-family="Times,serif" font-size="14.00" fill="#000000">no</text>
</g>
<!-- check_nonce_step_two&#45;&gt;pending -->
<g id="edge14" class="edge">
<title>check_nonce_step_two&#45;&gt;pending</title>
<path fill="none" stroke="#000000" d="M406.0491,-949.608C414.8356,-936.2584 426.8595,-916.3303 434.099,-897.3887 443.6435,-872.4165 450.1385,-843.3256 454.3615,-819.2875"/>
<polygon fill="#000000" stroke="#000000" points="457.8306,-819.763 456.0346,-809.3215 450.9272,-818.604 457.8306,-819.763"/>
<text text-anchor="middle" x="454.4301" y="-875.1887" font-family="Times,serif" font-size="14.00" fill="#000000">yes</text>
</g>
<!-- check_nonce_step_three&#45;&gt;rejected -->
<g id="edge17" class="edge">
<title>check_nonce_step_three&#45;&gt;rejected</title>
<path fill="none" stroke="#000000" d="M330.4725,-866.2357C304.022,-849.3691 257.4769,-819.6886 223.1564,-797.8034"/>
<polygon fill="#000000" stroke="#000000" points="225.0274,-794.8455 214.7139,-792.4199 221.2637,-800.7476 225.0274,-794.8455"/>
<text text-anchor="middle" x="297.099" y="-832.1887" font-family="Times,serif" font-size="14.00" fill="#000000">no</text>
</g>
<!-- check_nonce_step_three&#45;&gt;pending -->
<g id="edge16" class="edge">
<title>check_nonce_step_three&#45;&gt;pending</title>
<path fill="none" stroke="#000000" d="M365.9341,-864.6829C381.185,-849.5648 405.4953,-825.4663 425.7272,-805.4108"/>
<polygon fill="#000000" stroke="#000000" points="428.3342,-807.7547 432.9721,-798.2289 423.4061,-802.7833 428.3342,-807.7547"/>
<text text-anchor="middle" x="408.4301" y="-832.1887" font-family="Times,serif" font-size="14.00" fill="#000000">yes</text>
</g>
<!-- check_wasm&#45;&gt;rejected -->
<g id="edge11" class="edge">
<title>check_wasm&#45;&gt;rejected</title>
<path fill="none" stroke="#000000" d="M296.3273,-1123.5907C276.3298,-1108.472 249.099,-1082.2238 249.099,-1051.3887 249.099,-1051.3887 249.099,-1051.3887 249.099,-879.3887 249.099,-851.8982 233.2452,-825.7082 216.7362,-805.8883"/>
<polygon fill="#000000" stroke="#000000" points="219.3709,-803.5843 210.1627,-798.344 214.0932,-808.1828 219.3709,-803.5843"/>
<text text-anchor="middle" x="256.099" y="-961.1887" font-family="Times,serif" font-size="14.00" fill="#000000">no</text>
</g>
<!-- check_wasm&#45;&gt;check_nonce_step_one -->
<g id="edge10" class="edge">
<title>check_wasm&#45;&gt;check_nonce_step_one</title>
<path fill="none" stroke="#000000" d="M331.0439,-1122.0136C342.9847,-1108.8481 360.3597,-1089.6911 374.002,-1074.6496"/>
<polygon fill="#000000" stroke="#000000" points="376.6216,-1076.9711 380.7472,-1067.2125 371.4365,-1072.2684 376.6216,-1076.9711"/>
<text text-anchor="middle" x="369.4301" y="-1090.1887" font-family="Times,serif" font-size="14.00" fill="#000000">yes</text>
</g>
<!-- check_ttl -->
<g id="node11" class="node">
<title>check_ttl</title>
<polygon fill="none" stroke="#000000" points="250.099,-679.3053 167.2337,-661.3053 250.099,-643.3053 332.9644,-661.3053 250.099,-679.3053"/>
<text text-anchor="middle" x="250.099" y="-657.1053" font-family="Times,serif" font-size="14.00" fill="#000000">TTL expired?</text>
</g>
<!-- check_ttl&#45;&gt;pending -->
<g id="edge20" class="edge">
<title>check_ttl&#45;&gt;pending</title>
<path fill="none" stroke="#000000" d="M281.1367,-672.7117C298.2159,-679.3078 319.6296,-688.1064 338.099,-697.3053 365.9922,-711.1979 396.0901,-729.0183 419.5312,-743.5791"/>
<polygon fill="#000000" stroke="#000000" points="417.837,-746.6477 428.1708,-748.9851 421.5501,-740.7136 417.837,-746.6477"/>
<text text-anchor="middle" x="369.099" y="-700.1053" font-family="Times,serif" font-size="14.00" fill="#000000">no</text>
</g>
<!-- discarded -->
<g id="node15" class="node">
<title>discarded</title>
<ellipse fill="none" stroke="#000000" cx="236.099" cy="-547.3497" rx="45.9114" ry="45.9114"/>
<text text-anchor="middle" x="236.099" y="-543.1497" font-family="Times,serif" font-size="14.00" fill="#000000">Discarded</text>
</g>
<!-- check_ttl&#45;&gt;discarded -->
<g id="edge21" class="edge">
<title>check_ttl&#45;&gt;discarded</title>
<path fill="none" stroke="#000000" d="M247.9115,-643.4998C246.5619,-632.5139 244.7496,-617.7623 242.9504,-603.1174"/>
<polygon fill="#000000" stroke="#000000" points="246.4061,-602.5418 241.7127,-593.0432 239.4583,-603.3954 246.4061,-602.5418"/>
<text text-anchor="middle" x="255.4301" y="-614.1053" font-family="Times,serif" font-size="14.00" fill="#000000">yes</text>
</g>
<!-- pending&#45;&gt;check_ttl -->
<g id="edge19" class="edge">
<title>pending&#45;&gt;check_ttl</title>
<path fill="none" stroke="#000000" d="M421.9603,-764.9925C367.0256,-756.5884 271.4195,-738.4105 250.6401,-711.3053 245.7925,-704.9821 244.3513,-696.766 244.4971,-688.8271"/>
<polygon fill="#000000" stroke="#000000" points="247.9946,-689.0175 245.4498,-678.7329 241.0255,-688.3597 247.9946,-689.0175"/>
<text text-anchor="middle" x="294.8285" y="-700.1053" font-family="Times,serif" font-size="14.00" fill="#000000">periodic checks</text>
</g>
<!-- check_computation_result -->
<g id="node17" class="node">
<title>check_computation_result</title>
<polygon fill="none" stroke="#000000" points="455.3447,-679.3053 396.8534,-679.3053 396.8534,-643.3053 455.3447,-643.3053 455.3447,-679.3053"/>
<text text-anchor="middle" x="426.099" y="-657.1053" font-family="Times,serif" font-size="14.00" fill="#000000">execute</text>
</g>
<!-- pending&#45;&gt;check_computation_result -->
<g id="edge18" class="edge">
<title>pending&#45;&gt;check_computation_result</title>
<path fill="none" stroke="#000000" d="M428.5238,-748.558C416.701,-738.7225 404.6966,-725.9976 398.3471,-711.3053 394.9501,-703.4451 396.9923,-695.2057 401.1941,-687.7349"/>
<polygon fill="#000000" stroke="#000000" points="404.1505,-689.6125 406.9223,-679.3867 398.3785,-685.6521 404.1505,-689.6125"/>
<text text-anchor="middle" x="450.975" y="-700.1053" font-family="Times,serif" font-size="14.00" fill="#000000">propose new block</text>
</g>
<!-- processed -->
<g id="node13" class="node">
<title>processed</title>
<ellipse fill="none" stroke="#000000" cx="578.099" cy="-181.5021" rx="45.4441" ry="45.4441"/>
<text text-anchor="middle" x="578.099" y="-177.3021" font-family="Times,serif" font-size="14.00" fill="#000000">Processed</text>
</g>
<!-- processed&#45;&gt;pending -->
<g id="edge30" class="edge">
<title>processed&#45;&gt;pending</title>
<path fill="none" stroke="#000000" d="M601.2363,-221.2161C609.6342,-239.1673 617.099,-261.0178 617.099,-281.9742 617.099,-661.3053 617.099,-661.3053 617.099,-661.3053 617.099,-714.717 554.9062,-744.1518 509.0582,-758.5942"/>
<polygon fill="#000000" stroke="#000000" points="507.8327,-755.3077 499.2609,-761.5347 509.845,-762.0122 507.8327,-755.3077"/>
<text text-anchor="middle" x="660.4457" y="-472.194" font-family="Times,serif" font-size="14.00" fill="#000000">block orphaned</text>
</g>
<!-- finalized -->
<g id="node14" class="node">
<title>finalized</title>
<ellipse fill="none" stroke="#000000" cx="578.099" cy="-43.015" rx="43.0301" ry="43.0301"/>
<text text-anchor="middle" x="578.099" y="-38.815" font-family="Times,serif" font-size="14.00" fill="#000000">Finalized</text>
</g>
<!-- processed&#45;&gt;finalized -->
<g id="edge31" class="edge">
<title>processed&#45;&gt;finalized</title>
<path fill="none" stroke="#000000" d="M578.099,-135.7725C578.099,-123.2148 578.099,-109.4863 578.099,-96.533"/>
<polygon fill="#000000" stroke="#000000" points="581.5991,-96.348 578.099,-86.348 574.5991,-96.3481 581.5991,-96.348"/>
<text text-anchor="middle" x="619.5043" y="-106.8301" font-family="Times,serif" font-size="14.00" fill="#000000">block finalized</text>
</g>
<!-- deleted -->
<g id="node16" class="node">
<title>deleted</title>
<ellipse fill="none" stroke="#000000" cx="288.099" cy="-400.6841" rx="50.9207" ry="50.9207"/>
<text text-anchor="middle" x="288.099" y="-396.4841" font-family="Times,serif" font-size="14.00" fill="#000000">Unbuffered</text>
</g>
<!-- discarded&#45;&gt;deleted -->
<g id="edge22" class="edge">
<title>discarded&#45;&gt;deleted</title>
<path fill="none" stroke="#000000" d="M230.4621,-501.6C230.5203,-490.815 231.7534,-479.5163 235.1987,-469.394 237.9878,-461.1992 242.1929,-453.2193 247.037,-445.7712"/>
<polygon fill="#000000" stroke="#000000" points="250.1053,-447.491 252.9706,-437.291 244.3698,-443.4779 250.1053,-447.491"/>
<text text-anchor="middle" x="282.5492" y="-472.194" font-family="Times,serif" font-size="14.00" fill="#000000">periodic cleanup</text>
</g>
<!-- check_computation_result&#45;&gt;pending -->
<g id="edge24" class="edge">
<title>check_computation_result&#45;&gt;pending</title>
<path fill="none" stroke="#000000" d="M455.4112,-666.6796C472.7727,-671.5325 493.4083,-680.5967 504.099,-697.3053 512.2312,-710.0151 506.9501,-724.2617 497.6962,-736.7749"/>
<polygon fill="#000000" stroke="#000000" points="494.8095,-734.7739 491.1425,-744.7139 500.2078,-739.2303 494.8095,-734.7739"/>
<text text-anchor="middle" x="546.0043" y="-700.1053" font-family="Times,serif" font-size="14.00" fill="#000000">invalid nonce</text>
</g>
<!-- check_computation_result&#45;&gt;deleted -->
<g id="edge23" class="edge">
<title>check_computation_result&#45;&gt;deleted</title>
<path fill="none" stroke="#000000" d="M398.4934,-643.1127C382.2719,-630.948 362.7967,-613.5 351.5229,-593.3053 324.203,-544.3676 347.6863,-521.907 328.099,-469.394 325.9464,-463.6228 323.3288,-457.7758 320.4737,-452.0548"/>
<polygon fill="#000000" stroke="#000000" points="323.5712,-450.425 315.8245,-443.1974 317.3731,-453.6784 323.5712,-450.425"/>
<text text-anchor="middle" x="406.8871" y="-543.1497" font-family="Times,serif" font-size="14.00" fill="#000000">failed preconditions</text>
</g>
<!-- create_block -->
<g id="node19" class="node">
<title>create_block</title>
<polygon fill="none" stroke="#000000" points="556.1098,-565.3497 472.0883,-565.3497 472.0883,-529.3497 556.1098,-529.3497 556.1098,-565.3497"/>
<text text-anchor="middle" x="514.099" y="-543.1497" font-family="Times,serif" font-size="14.00" fill="#000000">create block</text>
</g>
<!-- check_computation_result&#45;&gt;create_block -->
<g id="edge25" class="edge">
<title>check_computation_result&#45;&gt;create_block</title>
<path fill="none" stroke="#000000" d="M440.0429,-643.2487C454.5041,-624.5221 477.2626,-595.051 493.7354,-573.7195"/>
<polygon fill="#000000" stroke="#000000" points="496.5871,-575.7531 499.929,-565.6992 491.0468,-571.4747 496.5871,-575.7531"/>
<text text-anchor="middle" x="483.0922" y="-614.1053" font-family="Times,serif" font-size="14.00" fill="#000000">success</text>
</g>
<!-- check_block -->
<g id="node18" class="node">
<title>check_block</title>
<polygon fill="none" stroke="#000000" points="511.099,-418.6841 433.395,-400.6841 511.099,-382.6841 588.8031,-400.6841 511.099,-418.6841"/>
<text text-anchor="middle" x="511.099" y="-396.4841" font-family="Times,serif" font-size="14.00" fill="#000000">Block valid?</text>
</g>
<!-- check_block&#45;&gt;pending -->
<g id="edge28" class="edge">
<title>check_block&#45;&gt;pending</title>
<path fill="none" stroke="#000000" d="M551.6552,-409.2991C603.0247,-421.1288 687.0557,-443.8618 705.099,-469.394 708.69,-474.4754 706.0718,-477.2483 705.099,-483.394 688.4499,-588.584 705.6365,-635.2376 631.099,-711.3053 599.119,-743.9419 548.1956,-758.5582 510.4104,-765.0921"/>
<polygon fill="#000000" stroke="#000000" points="509.4535,-761.7003 500.1281,-766.7289 510.554,-768.6132 509.4535,-761.7003"/>
<text text-anchor="middle" x="696.099" y="-614.1053" font-family="Times,serif" font-size="14.00" fill="#000000">no</text>
</g>
<!-- store_block -->
<g id="node20" class="node">
<title>store_block</title>
<polygon fill="none" stroke="#000000" points="578.9166,-299.9742 501.2814,-299.9742 501.2814,-263.9742 578.9166,-263.9742 578.9166,-299.9742"/>
<text text-anchor="middle" x="540.099" y="-277.7742" font-family="Times,serif" font-size="14.00" fill="#000000">store block</text>
</g>
<!-- check_block&#45;&gt;store_block -->
<g id="edge27" class="edge">
<title>check_block&#45;&gt;store_block</title>
<path fill="none" stroke="#000000" d="M515.3159,-383.4227C520.0294,-364.1283 527.7297,-332.6076 533.2973,-309.8168"/>
<polygon fill="#000000" stroke="#000000" points="536.7137,-310.5799 535.6869,-300.0349 529.9137,-308.9186 536.7137,-310.5799"/>
<text text-anchor="middle" x="539.4301" y="-320.7742" font-family="Times,serif" font-size="14.00" fill="#000000">yes</text>
</g>
<!-- create_block&#45;&gt;check_block -->
<g id="edge26" class="edge">
<title>create_block&#45;&gt;check_block</title>
<path fill="none" stroke="#000000" d="M513.7252,-529.0709C513.2104,-503.9031 512.2785,-458.3473 511.6745,-428.8188"/>
<polygon fill="#000000" stroke="#000000" points="515.1721,-428.6588 511.4682,-418.7325 508.1736,-428.802 515.1721,-428.6588"/>
</g>
<!-- store_block&#45;&gt;processed -->
<g id="edge29" class="edge">
<title>store_block&#45;&gt;processed</title>
<path fill="none" stroke="#000000" d="M547.0688,-263.5461C550.2838,-255.0457 554.2794,-244.4813 558.322,-233.7927"/>
<polygon fill="#000000" stroke="#000000" points="561.6043,-235.008 561.8682,-224.4164 555.0569,-232.5316 561.6043,-235.008"/>
</g>
</g>
</svg>
