<?xml version="1.0" encoding="UTF-8" standalone="no"?>
<!DOCTYPE svg PUBLIC "-//W3C//DTD SVG 1.1//EN"
 "http://www.w3.org/Graphics/SVG/1.1/DTD/svg11.dtd">
<!-- Generated by graphviz version 2.40.1 (20161225.0304)
 -->
<!-- Title: deploy_processing_finite_state_machine Pages: 1 -->
<svg width="1301pt" height="3099pt"
 viewBox="0.00 0.00 624.69 1487.45" xmlns="http://www.w3.org/2000/svg" xmlns:xlink="http://www.w3.org/1999/xlink">
<g id="graph0" class="graph" transform="scale(2.0833 2.0833) rotate(0) translate(4 1483.4473)">
<title>deploy_processing_finite_state_machine</title>
<polygon fill="#ffffff" stroke="transparent" points="-4,4 -4,-1483.4473 620.6934,-1483.4473 620.6934,4 -4,4"/>
<!-- initialized -->
<g id="node1" class="node">
<title>initialized</title>
<ellipse fill="none" stroke="#000000" cx="470" cy="-1461.4473" rx="45.9114" ry="18"/>
<text text-anchor="middle" x="470" y="-1457.2473" font-family="Times,serif" font-size="14.00" fill="#000000">Initialized</text>
</g>
<!-- check_hashes -->
<g id="node3" class="node">
<title>check_hashes</title>
<polygon fill="none" stroke="#000000" points="141,-1393.4473 56.8018,-1375.4473 141,-1357.4473 225.1982,-1375.4473 141,-1393.4473"/>
<text text-anchor="middle" x="141" y="-1371.2473" font-family="Times,serif" font-size="14.00" fill="#000000">Hashes valid?</text>
</g>
<!-- initialized&#45;&gt;check_hashes -->
<g id="edge1" class="edge">
<title>initialized&#45;&gt;check_hashes</title>
<path fill="none" stroke="#000000" d="M431.6156,-1451.4137C371.2356,-1435.6304 254.2022,-1405.0381 188.5728,-1387.8827"/>
<polygon fill="#000000" stroke="#000000" points="189.4467,-1384.4936 178.8866,-1385.3507 187.6764,-1391.2661 189.4467,-1384.4936"/>
<text text-anchor="middle" x="369.5054" y="-1414.2473" font-family="Times,serif" font-size="14.00" fill="#000000">deploy received</text>
</g>
<!-- rejected -->
<g id="node2" class="node">
<title>rejected</title>
<ellipse fill="none" stroke="#000000" cx="109" cy="-664.4056" rx="41.0834" ry="41.0834"/>
<text text-anchor="middle" x="109" y="-660.2056" font-family="Times,serif" font-size="14.00" fill="#000000">Rejected</text>
</g>
<!-- check_hashes&#45;&gt;rejected -->
<g id="edge3" class="edge">
<title>check_hashes&#45;&gt;rejected</title>
<path fill="none" stroke="#000000" d="M94.8313,-1367.2048C53.7098,-1356.892 0,-1334.7509 0,-1289.4473 0,-1289.4473 0,-1289.4473 0,-773.4473 0,-735.5639 33.315,-706.2404 63.1086,-687.5909"/>
<polygon fill="#000000" stroke="#000000" points="65.0177,-690.5272 71.7932,-682.3821 61.4172,-684.5241 65.0177,-690.5272"/>
<text text-anchor="middle" x="7" y="-1027.2473" font-family="Times,serif" font-size="14.00" fill="#000000">no</text>
</g>
<!-- check_signatures -->
<g id="node4" class="node">
<title>check_signatures</title>
<polygon fill="none" stroke="#000000" points="141,-1307.4473 40.4465,-1289.4473 141,-1271.4473 241.5535,-1289.4473 141,-1307.4473"/>
<text text-anchor="middle" x="141" y="-1285.2473" font-family="Times,serif" font-size="14.00" fill="#000000">Signatures valid?</text>
</g>
<!-- check_hashes&#45;&gt;check_signatures -->
<g id="edge2" class="edge">
<title>check_hashes&#45;&gt;check_signatures</title>
<path fill="none" stroke="#000000" d="M141,-1357.2089C141,-1345.8069 141,-1330.8814 141,-1317.9412"/>
<polygon fill="#000000" stroke="#000000" points="144.5001,-1317.6593 141,-1307.6594 137.5001,-1317.6594 144.5001,-1317.6593"/>
<text text-anchor="middle" x="150.3311" y="-1328.2473" font-family="Times,serif" font-size="14.00" fill="#000000">yes</text>
</g>
<!-- check_signatures&#45;&gt;rejected -->
<g id="edge5" class="edge">
<title>check_signatures&#45;&gt;rejected</title>
<path fill="none" stroke="#000000" d="M108.5837,-1277.1021C79.7111,-1263.7472 42,-1239.419 42,-1203.4473 42,-1203.4473 42,-1203.4473 42,-773.4473 42,-746.4982 57.0397,-720.6084 72.8678,-700.8235"/>
<polygon fill="#000000" stroke="#000000" points="75.6779,-702.9194 79.4178,-693.0066 70.3125,-698.4236 75.6779,-702.9194"/>
<text text-anchor="middle" x="49" y="-984.2473" font-family="Times,serif" font-size="14.00" fill="#000000">no</text>
</g>
<!-- check_preexistence -->
<g id="node5" class="node">
<title>check_preexistence</title>
<polygon fill="none" stroke="#000000" points="177,-1221.4473 70.1486,-1203.4473 177,-1185.4473 283.8514,-1203.4473 177,-1221.4473"/>
<text text-anchor="middle" x="177" y="-1199.2473" font-family="Times,serif" font-size="14.00" fill="#000000">In finalized DAG?</text>
</g>
<!-- check_signatures&#45;&gt;check_preexistence -->
<g id="edge4" class="edge">
<title>check_signatures&#45;&gt;check_preexistence</title>
<path fill="none" stroke="#000000" d="M148.1124,-1272.4564C153.1911,-1260.3242 160.1219,-1243.7672 165.9217,-1229.912"/>
<polygon fill="#000000" stroke="#000000" points="169.2694,-1230.9787 169.9023,-1220.4028 162.8123,-1228.2757 169.2694,-1230.9787"/>
<text text-anchor="middle" x="171.3311" y="-1242.2473" font-family="Times,serif" font-size="14.00" fill="#000000">yes</text>
</g>
<!-- check_preexistence&#45;&gt;rejected -->
<g id="edge7" class="edge">
<title>check_preexistence&#45;&gt;rejected</title>
<path fill="none" stroke="#000000" d="M147.8581,-1190.2127C121.9019,-1176.1983 88,-1151.3958 88,-1117.4473 88,-1117.4473 88,-1117.4473 88,-773.4473 88,-753.7649 91.3399,-732.4389 95.3558,-713.9105"/>
<polygon fill="#000000" stroke="#000000" points="98.8201,-714.4619 97.6395,-703.933 91.9965,-712.9 98.8201,-714.4619"/>
<text text-anchor="middle" x="97.3311" y="-941.2473" font-family="Times,serif" font-size="14.00" fill="#000000">yes</text>
</g>
<!-- check_session_and_payment_code -->
<g id="node6" class="node">
<title>check_session_and_payment_code</title>
<polygon fill="none" stroke="#000000" points="196,-1135.4473 116.0461,-1117.4473 196,-1099.4473 275.9539,-1117.4473 196,-1135.4473"/>
<text text-anchor="middle" x="196" y="-1113.2473" font-family="Times,serif" font-size="14.00" fill="#000000">Has WASM?</text>
</g>
<!-- check_preexistence&#45;&gt;check_session_and_payment_code -->
<g id="edge6" class="edge">
<title>check_preexistence&#45;&gt;check_session_and_payment_code</title>
<path fill="none" stroke="#000000" d="M180.8449,-1186.0439C183.4718,-1174.154 187.0056,-1158.159 190,-1144.6052"/>
<polygon fill="#000000" stroke="#000000" points="193.421,-1145.3444 192.1608,-1134.8248 186.5858,-1143.8342 193.421,-1145.3444"/>
<text text-anchor="middle" x="195" y="-1156.2473" font-family="Times,serif" font-size="14.00" fill="#000000">no</text>
</g>
<!-- check_session_and_payment_code&#45;&gt;rejected -->
<g id="edge9" class="edge">
<title>check_session_and_payment_code&#45;&gt;rejected</title>
<path fill="none" stroke="#000000" d="M183.6822,-1101.9733C173.9071,-1088.8063 160.7938,-1068.9742 154,-1049.4473 114.1851,-935.0094 108.1146,-791.1017 108.0179,-715.7701"/>
<polygon fill="#000000" stroke="#000000" points="111.5182,-715.6138 108.041,-705.6058 104.5182,-715.5978 111.5182,-715.6138"/>
<text text-anchor="middle" x="129" y="-898.2473" font-family="Times,serif" font-size="14.00" fill="#000000">no</text>
</g>
<!-- check_wasm -->
<g id="node10" class="node">
<title>check_wasm</title>
<polygon fill="none" stroke="#000000" points="249,-1049.4473 163.4928,-1031.4473 249,-1013.4473 334.5072,-1031.4473 249,-1049.4473"/>
<text text-anchor="middle" x="249" y="-1027.2473" font-family="Times,serif" font-size="14.00" fill="#000000">WASM valid?</text>
</g>
<!-- check_session_and_payment_code&#45;&gt;check_wasm -->
<g id="edge8" class="edge">
<title>check_session_and_payment_code&#45;&gt;check_wasm</title>
<path fill="none" stroke="#000000" d="M205.9689,-1101.2713C213.8158,-1088.5385 224.8826,-1070.5811 233.828,-1056.066"/>
<polygon fill="#000000" stroke="#000000" points="236.8089,-1057.9002 239.0758,-1047.5507 230.8496,-1054.2276 236.8089,-1057.9002"/>
<text text-anchor="middle" x="234.3311" y="-1070.2473" font-family="Times,serif" font-size="14.00" fill="#000000">yes</text>
</g>
<!-- check_nonce_step_one -->
<g id="node7" class="node">
<title>check_nonce_step_one</title>
<polygon fill="none" stroke="#000000" points="323,-963.4473 210.3751,-945.4473 323,-927.4473 435.6249,-945.4473 323,-963.4473"/>
<text text-anchor="middle" x="323" y="-941.2473" font-family="Times,serif" font-size="14.00" fill="#000000">Already processed?</text>
</g>
<!-- check_nonce_step_two -->
<g id="node8" class="node">
<title>check_nonce_step_two</title>
<polygon fill="none" stroke="#000000" points="323,-877.4473 242.2634,-859.4473 323,-841.4473 403.7366,-859.4473 323,-877.4473"/>
<text text-anchor="middle" x="323" y="-855.2473" font-family="Times,serif" font-size="14.00" fill="#000000">Nonce valid?</text>
</g>
<!-- check_nonce_step_one&#45;&gt;check_nonce_step_two -->
<g id="edge13" class="edge">
<title>check_nonce_step_one&#45;&gt;check_nonce_step_two</title>
<path fill="none" stroke="#000000" d="M323,-927.2089C323,-915.8069 323,-900.8814 323,-887.9412"/>
<polygon fill="#000000" stroke="#000000" points="326.5001,-887.6593 323,-877.6594 319.5001,-887.6594 326.5001,-887.6593"/>
<text text-anchor="middle" x="332.3311" y="-898.2473" font-family="Times,serif" font-size="14.00" fill="#000000">yes</text>
</g>
<!-- pending -->
<g id="node11" class="node">
<title>pending</title>
<ellipse fill="none" stroke="#000000" cx="398" cy="-664.4056" rx="39.1887" ry="39.1887"/>
<text text-anchor="middle" x="398" y="-660.2056" font-family="Times,serif" font-size="14.00" fill="#000000">Pending</text>
</g>
<!-- check_nonce_step_one&#45;&gt;pending -->
<g id="edge12" class="edge">
<title>check_nonce_step_one&#45;&gt;pending</title>
<path fill="none" stroke="#000000" d="M352.8316,-932.0503C373.9005,-920.7972 400.5205,-902.5173 413,-877.4473 439.114,-824.9869 427.2668,-756.1014 414.3773,-711.0667"/>
<polygon fill="#000000" stroke="#000000" points="417.6681,-709.8543 411.4509,-701.2754 410.9612,-711.8589 417.6681,-709.8543"/>
<text text-anchor="middle" x="435" y="-812.2473" font-family="Times,serif" font-size="14.00" fill="#000000">no</text>
</g>
<!-- check_nonce_step_three -->
<g id="node9" class="node">
<title>check_nonce_step_three</title>
<polygon fill="none" stroke="#000000" points="275,-791.4473 201.1376,-773.4473 275,-755.4473 348.8624,-773.4473 275,-791.4473"/>
<text text-anchor="middle" x="275" y="-769.2473" font-family="Times,serif" font-size="14.00" fill="#000000">Same hash?</text>
</g>
<!-- check_nonce_step_two&#45;&gt;check_nonce_step_three -->
<g id="edge15" class="edge">
<title>check_nonce_step_two&#45;&gt;check_nonce_step_three</title>
<path fill="none" stroke="#000000" d="M313.9716,-843.2713C306.9319,-830.6586 297.031,-812.9195 288.9705,-798.4778"/>
<polygon fill="#000000" stroke="#000000" points="291.9179,-796.5769 283.9879,-789.5507 285.8055,-799.9885 291.9179,-796.5769"/>
<text text-anchor="middle" x="308" y="-812.2473" font-family="Times,serif" font-size="14.00" fill="#000000">no</text>
</g>
<!-- check_nonce_step_two&#45;&gt;pending -->
<g id="edge14" class="edge">
<title>check_nonce_step_two&#45;&gt;pending</title>
<path fill="none" stroke="#000000" d="M332.2882,-843.3285C339.853,-829.7778 350.4751,-809.7438 358,-791.4473 368.5903,-765.6972 378.0675,-736.0648 385.1358,-711.8988"/>
<polygon fill="#000000" stroke="#000000" points="388.5115,-712.8241 387.9168,-702.246 381.7851,-710.8862 388.5115,-712.8241"/>
<text text-anchor="middle" x="379.3311" y="-769.2473" font-family="Times,serif" font-size="14.00" fill="#000000">yes</text>
</g>
<!-- check_nonce_step_three&#45;&gt;rejected -->
<g id="edge17" class="edge">
<title>check_nonce_step_three&#45;&gt;rejected</title>
<path fill="none" stroke="#000000" d="M254.9765,-760.2943C229.6458,-743.6551 185.3305,-714.5454 152.1527,-692.7516"/>
<polygon fill="#000000" stroke="#000000" points="153.8262,-689.6634 143.5465,-687.0984 149.983,-695.514 153.8262,-689.6634"/>
<text text-anchor="middle" x="223" y="-726.2473" font-family="Times,serif" font-size="14.00" fill="#000000">no</text>
</g>
<!-- check_nonce_step_three&#45;&gt;pending -->
<g id="edge16" class="edge">
<title>check_nonce_step_three&#45;&gt;pending</title>
<path fill="none" stroke="#000000" d="M291.0801,-759.192C308.7486,-743.5286 337.7174,-717.8472 361.0477,-697.1644"/>
<polygon fill="#000000" stroke="#000000" points="363.558,-699.6164 368.7191,-690.3636 358.9144,-694.3783 363.558,-699.6164"/>
<text text-anchor="middle" x="338.3311" y="-726.2473" font-family="Times,serif" font-size="14.00" fill="#000000">yes</text>
</g>
<!-- check_wasm&#45;&gt;rejected -->
<g id="edge11" class="edge">
<title>check_wasm&#45;&gt;rejected</title>
<path fill="none" stroke="#000000" d="M235.4746,-1016.034C224.6317,-1002.9031 209.8178,-983.09 201,-963.4473 156.1425,-863.5221 186.4797,-824.8212 145,-723.4473 142.7864,-718.0374 140.1127,-712.5498 137.2339,-707.2096"/>
<polygon fill="#000000" stroke="#000000" points="140.2171,-705.3747 132.2406,-698.4014 134.1275,-708.8269 140.2171,-705.3747"/>
<text text-anchor="middle" x="183" y="-855.2473" font-family="Times,serif" font-size="14.00" fill="#000000">no</text>
</g>
<!-- check_wasm&#45;&gt;check_nonce_step_one -->
<g id="edge10" class="edge">
<title>check_wasm&#45;&gt;check_nonce_step_one</title>
<path fill="none" stroke="#000000" d="M262.2297,-1016.0722C273.3841,-1003.109 289.5367,-984.337 302.3857,-969.4044"/>
<polygon fill="#000000" stroke="#000000" points="305.262,-971.4278 309.1314,-961.5648 299.9559,-966.8621 305.262,-971.4278"/>
<text text-anchor="middle" x="299.3311" y="-984.2473" font-family="Times,serif" font-size="14.00" fill="#000000">yes</text>
</g>
<!-- pending&#45;&gt;initialized -->
<g id="edge28" class="edge">
<title>pending&#45;&gt;initialized</title>
<path fill="none" stroke="#000000" d="M427.7008,-690.4247C447.5341,-710.7848 470,-741.0071 470,-773.4473 470,-1375.4473 470,-1375.4473 470,-1375.4473 470,-1394.6762 470,-1416.3235 470,-1433.0893"/>
<polygon fill="#000000" stroke="#000000" points="466.5001,-1433.3274 470,-1443.3274 473.5001,-1433.3274 466.5001,-1433.3274"/>
<text text-anchor="middle" x="502.8467" y="-1070.2473" font-family="Times,serif" font-size="14.00" fill="#000000">restart node</text>
</g>
<!-- check_computation_result -->
<g id="node14" class="node">
<title>check_computation_result</title>
<polygon fill="none" stroke="#000000" points="281.2457,-573.3639 222.7543,-573.3639 222.7543,-537.3639 281.2457,-537.3639 281.2457,-573.3639"/>
<text text-anchor="middle" x="252" y="-551.1639" font-family="Times,serif" font-size="14.00" fill="#000000">execute</text>
</g>
<!-- pending&#45;&gt;check_computation_result -->
<g id="edge18" class="edge">
<title>pending&#45;&gt;check_computation_result</title>
<path fill="none" stroke="#000000" d="M359.2377,-658.8761C305.3993,-650.3123 212.318,-632.003 192.248,-605.3639 181.9899,-591.7482 196.3142,-579.4203 213.5027,-570.4123"/>
<polygon fill="#000000" stroke="#000000" points="215.1451,-573.5062 222.6373,-566.015 212.1088,-567.1989 215.1451,-573.5062"/>
<text text-anchor="middle" x="245.876" y="-594.1639" font-family="Times,serif" font-size="14.00" fill="#000000">propose new block</text>
</g>
<!-- processed -->
<g id="node12" class="node">
<title>processed</title>
<ellipse fill="none" stroke="#000000" cx="388" cy="-196.8919" rx="45.4441" ry="45.4441"/>
<text text-anchor="middle" x="388" y="-192.6919" font-family="Times,serif" font-size="14.00" fill="#000000">Processed</text>
</g>
<!-- processed&#45;&gt;initialized -->
<g id="edge29" class="edge">
<title>processed&#45;&gt;initialized</title>
<path fill="none" stroke="#000000" d="M432.972,-204.6487C481.219,-215.8529 551,-241.6825 551,-297.3639 551,-1375.4473 551,-1375.4473 551,-1375.4473 551,-1403.6939 527.5582,-1426.438 505.8963,-1441.4252"/>
<polygon fill="#000000" stroke="#000000" points="503.8684,-1438.5695 497.4229,-1446.9783 507.7053,-1444.4243 503.8684,-1438.5695"/>
<text text-anchor="middle" x="583.8467" y="-855.2473" font-family="Times,serif" font-size="14.00" fill="#000000">restart node</text>
</g>
<!-- processed&#45;&gt;pending -->
<g id="edge26" class="edge">
<title>processed&#45;&gt;pending</title>
<path fill="none" stroke="#000000" d="M402.4356,-240.4155C407.0567,-257.9102 411,-278.396 411,-297.3639 411,-555.3639 411,-555.3639 411,-555.3639 411,-575.1497 408.8635,-596.8139 406.3228,-615.5817"/>
<polygon fill="#000000" stroke="#000000" points="402.8296,-615.2856 404.8807,-625.68 409.7593,-616.2753 402.8296,-615.2856"/>
<text text-anchor="middle" x="454.3467" y="-422.1639" font-family="Times,serif" font-size="14.00" fill="#000000">block orphaned</text>
</g>
<!-- deleted -->
<g id="node13" class="node">
<title>deleted</title>
<ellipse fill="none" stroke="#000000" cx="215" cy="-50.7099" rx="50.9207" ry="50.9207"/>
<text text-anchor="middle" x="215" y="-46.5099" font-family="Times,serif" font-size="14.00" fill="#000000">Unbuffered</text>
</g>
<!-- processed&#45;&gt;deleted -->
<g id="edge27" class="edge">
<title>processed&#45;&gt;deleted</title>
<path fill="none" stroke="#000000" d="M352.9909,-167.3098C326.7288,-145.1187 290.5105,-114.515 261.7689,-90.2288"/>
<polygon fill="#000000" stroke="#000000" points="263.7724,-87.3395 253.8751,-83.5587 259.2544,-92.6863 263.7724,-87.3395"/>
<text text-anchor="middle" x="352.4053" y="-122.2198" font-family="Times,serif" font-size="14.00" fill="#000000">block finalized</text>
</g>
<!-- check_computation_result&#45;&gt;pending -->
<g id="edge20" class="edge">
<title>check_computation_result&#45;&gt;pending</title>
<path fill="none" stroke="#000000" d="M276.3883,-573.5786C298.6516,-590.2062 331.9731,-615.0927 358.1098,-634.6132"/>
<polygon fill="#000000" stroke="#000000" points="356.2137,-637.5655 366.3202,-640.7452 360.4025,-631.957 356.2137,-637.5655"/>
<text text-anchor="middle" x="353.9053" y="-594.1639" font-family="Times,serif" font-size="14.00" fill="#000000">invalid nonce</text>
</g>
<!-- check_computation_result&#45;&gt;deleted -->
<g id="edge19" class="edge">
<title>check_computation_result&#45;&gt;deleted</title>
<path fill="none" stroke="#000000" d="M232.5657,-537.1944C217.4395,-521.0087 199,-495.8465 199,-469.3639 199,-469.3639 199,-469.3639 199,-196.8919 199,-168.606 201.9968,-137.4232 205.3966,-111.149"/>
<polygon fill="#000000" stroke="#000000" points="208.9022,-111.3408 206.7657,-100.9636 201.9646,-110.4082 208.9022,-111.3408"/>
<text text-anchor="middle" x="254.7881" y="-336.1639" font-family="Times,serif" font-size="14.00" fill="#000000">failed preconditions</text>
</g>
<!-- create_block -->
<g id="node16" class="node">
<title>create_block</title>
<polygon fill="none" stroke="#000000" points="320.0107,-487.3639 235.9893,-487.3639 235.9893,-451.3639 320.0107,-451.3639 320.0107,-487.3639"/>
<text text-anchor="middle" x="278" y="-465.1639" font-family="Times,serif" font-size="14.00" fill="#000000">create block</text>
</g>
<!-- check_computation_result&#45;&gt;create_block -->
<g id="edge21" class="edge">
<title>check_computation_result&#45;&gt;create_block</title>
<path fill="none" stroke="#000000" d="M257.5139,-537.1255C260.9955,-525.6095 265.5637,-510.4992 269.5027,-497.4703"/>
<polygon fill="#000000" stroke="#000000" points="272.9503,-498.161 272.494,-487.576 266.2498,-496.1352 272.9503,-498.161"/>
<text text-anchor="middle" x="286.9932" y="-508.1639" font-family="Times,serif" font-size="14.00" fill="#000000">success</text>
</g>
<!-- valid_block -->
<g id="node15" class="node">
<title>valid_block</title>
<polygon fill="none" stroke="#000000" points="305,-401.3639 227.296,-383.3639 305,-365.3639 382.704,-383.3639 305,-401.3639"/>
<text text-anchor="middle" x="305" y="-379.1639" font-family="Times,serif" font-size="14.00" fill="#000000">Block valid?</text>
</g>
<!-- valid_block&#45;&gt;pending -->
<g id="edge24" class="edge">
<title>valid_block&#45;&gt;pending</title>
<path fill="none" stroke="#000000" d="M368.7898,-386.6083C418.7925,-390.645 482.5739,-399.6093 499,-419.3639 552.0273,-483.1366 480.3126,-578.5835 433.2272,-629.4868"/>
<polygon fill="#000000" stroke="#000000" points="430.4953,-627.2826 426.1907,-636.9636 435.5929,-632.08 430.4953,-627.2826"/>
<text text-anchor="middle" x="519" y="-508.1639" font-family="Times,serif" font-size="14.00" fill="#000000">no</text>
</g>
<!-- store_block -->
<g id="node17" class="node">
<title>store_block</title>
<polygon fill="none" stroke="#000000" points="377.8176,-315.3639 300.1824,-315.3639 300.1824,-279.3639 377.8176,-279.3639 377.8176,-315.3639"/>
<text text-anchor="middle" x="339" y="-293.1639" font-family="Times,serif" font-size="14.00" fill="#000000">store block</text>
</g>
<!-- valid_block&#45;&gt;store_block -->
<g id="edge23" class="edge">
<title>valid_block&#45;&gt;store_block</title>
<path fill="none" stroke="#000000" d="M311.5555,-366.7822C316.245,-354.9207 322.6656,-338.6803 328.1176,-324.89"/>
<polygon fill="#000000" stroke="#000000" points="331.4559,-325.9657 331.8777,-315.3792 324.9461,-323.392 331.4559,-325.9657"/>
<text text-anchor="middle" x="333.3311" y="-336.1639" font-family="Times,serif" font-size="14.00" fill="#000000">yes</text>
</g>
<!-- create_block&#45;&gt;valid_block -->
<g id="edge22" class="edge">
<title>create_block&#45;&gt;valid_block</title>
<path fill="none" stroke="#000000" d="M283.726,-451.1255C287.476,-439.1812 292.4399,-423.3702 296.6295,-410.0254"/>
<polygon fill="#000000" stroke="#000000" points="299.9934,-410.9954 299.6495,-400.4061 293.3148,-408.8986 299.9934,-410.9954"/>
</g>
<!-- store_block&#45;&gt;processed -->
<g id="edge25" class="edge">
<title>store_block&#45;&gt;processed</title>
<path fill="none" stroke="#000000" d="M347.9874,-278.9358C352.3911,-269.9061 357.9308,-258.5473 363.4723,-247.1846"/>
<polygon fill="#000000" stroke="#000000" points="366.6576,-248.6379 367.8953,-238.1156 360.3659,-245.5694 366.6576,-248.6379"/>
</g>
</g>
</svg>
